# xmcd
#
# Track frame offsets:
# 150
# 18285
# 33580
# 48565
# 62417
# 78557
# 95072
# 111765
# 127022
# 144660
# 160835
#
# Disc length: 2382 seconds
#
#
# Revision: 0
# Processed by: cddbd v1.5.1PL0 Copyright (c) Steve Scherf et al.
# Submitted via: FreeRIP 2.942 
#
DISCID=94094c0b
DTITLE=Ozark Mountain Daredevils - Modern History
DYEAR=1989
DGENRE=Country
TTITLE0=Everywhere She Goes
TTITLE1=Love is Calling
TTITLE2=I'm Still Dreaming
TTITLE3=Turn It Up
TTITLE4=True Love
TTITLE5=Lonely Knight
TTITLE6=Over Again
TTITLE7=Heatin' Up
TTITLE8=The River
TTITLE9=Heart of the Country
TTITLE10=Wilder Days
EXTD=Conifer CDRR 303
EXTT0=
EXTT1=
EXTT2=
EXTT3=
EXTT4=
EXTT5=
EXTT6=
EXTT7=
EXTT8=
EXTT9=
EXTT10=
PLAYORDER=
